<?xml version="1.0" encoding="utf-8"?>
<!-- Generator: Adobe Illustrator 16.0.0, SVG Export Plug-In . SVG Version: 6.00 Build 0)  -->
<!DOCTYPE svg PUBLIC "-//W3C//DTD SVG 1.1//EN" "http://www.w3.org/Graphics/SVG/1.1/DTD/svg11.dtd">
<svg version="1.1" id="Layer_1" xmlns="http://www.w3.org/2000/svg" xmlns:xlink="http://www.w3.org/1999/xlink" x="0px" y="0px"
	 width="70.16px" height="60px" viewBox="-4.164 11 70.16 60" enable-background="new -4.164 11 70.16 60" xml:space="preserve">
<g>
	<path fill="#07819A" d="M65.9,36.2c-0.2-0.5-0.9-0.5-0.9-0.5v-0.2V35h-6.3L58.6,34.6C56.2,23,47.3,14,35.9,11.6c-2-0.4-4-0.6-6-0.6
		C19.4,11,9.2,17.1,4,26.6c-0.3,0.6-0.2,1.1,0,1.4c0.3,0.5,0.8,0.8,1.3,0.8s0.8-0.2,1.1-0.7c4.8-8.8,13.8-14.3,23.6-14.3
		c1.9,0,3.9,0.2,5.8,0.6c9.8,2.2,17.4,9.8,19.9,20l0.2,0.8H50.3c-0.6,0-1.1,0.399-1.399,1C48.8,36.5,48.6,37.1,49.1,37.7
		c1.2,1.3,2.301,2.7,3.4,4l0.4,0.399C54,43.4,55.1,45,56.3,46.4c0.101,0.1,0.3,0.6,0.9,0.6l0,0c0.5,0,0.8-0.5,1-0.7
		C59.4,44.9,60.6,43.4,61.8,42s2.5-2.7,3.7-4.1C66,37.3,66.1,36.6,65.9,36.2z"/>
	<path fill="#07819A" d="M56.6,53.2c-0.5,0-0.8,0.2-1.1,0.7C50.8,62.6,41.8,68.1,32,68.1c-1.9,0-3.9-0.199-5.8-0.6
		c-9.8-2.2-17.4-9.8-19.9-20L6,46.6l5.7,0.101c0.6,0,1.1-0.4,1.4-1c0.1-0.3,0.3-0.9-0.2-1.5c-1.2-1.4-2.4-2.8-3.6-4.101L9.1,39.9
		C8,38.6,6.8,37.3,5.6,35.9C5.4,35.7,5,35.6,4.6,35.6S3.9,35.7,3.6,36c-1.2,1.4-2.4,2.7-3.6,4.1c-1.2,1.4-2.4,2.7-3.6,4.101
		c-0.4,0.6-0.7,1.1-0.5,1.6c0.4,0.4,1.1,0.8,1.1,0.8V47h6.2l0.1,0.3C5.6,58.8,14.6,67.8,26.1,70.4c2,0.399,4,0.6,6,0.6
		c10.5,0,20.7-6.2,25.9-15.7c0.3-0.6,0.2-1.1,0-1.399C57.7,53.5,57.2,53.2,56.6,53.2z"/>
</g>
</svg>
