<?xml version="1.0" encoding="utf-8"?>
<!-- Generator: Adobe Illustrator 16.0.0, SVG Export Plug-In . SVG Version: 6.00 Build 0)  -->
<!DOCTYPE svg PUBLIC "-//W3C//DTD SVG 1.1//EN" "http://www.w3.org/Graphics/SVG/1.1/DTD/svg11.dtd">
<svg version="1.1" id="Your_Icon" xmlns="http://www.w3.org/2000/svg" xmlns:xlink="http://www.w3.org/1999/xlink" x="0px" y="0px"
	 width="106px" height="22px" viewBox="151.9 461 106 22" enable-background="new 151.9 461 106 22" xml:space="preserve">
<g display="none">
	<g display="inline">
		<circle fill="#231F20" cx="340.4" cy="472.6" r="12.2"/>
	</g>
	<path display="inline" d="M340.4,426.7c-22.601,0-41.601,16.5-45.3,37.899h-42.8C248.6,443.2,229.7,426.7,207,426.7
		s-41.6,16.5-45.3,37.899h-45.9C112.1,443.2,93.2,426.7,70.5,426.7c-25.1,0-45.9,20.2-45.9,45.899c0,25.101,20.2,45.9,45.9,45.9
		c22.6,0,41.6-16.5,45.3-37.9h45.9c3.7,21.4,22.6,37.9,45.3,37.9s41.6-16.5,45.3-37.9h42.8c3.7,21.4,22.6,37.9,45.3,37.9
		c25.1,0,45.899-20.2,45.899-45.9C386.3,446.9,365.5,426.7,340.4,426.7z M71.1,502.6c-16.5,0-30-13.5-30-30s13.5-30,30-30
		s30,13.5,30,30S87.7,502.6,71.1,502.6z M207,502.6c-16.5,0-30-13.5-30-30s13.5-30,30-30s30,13.5,30,30
		C237.6,489.1,223.5,502.6,207,502.6z M340.4,502.6c-16.5,0-30-13.5-30-30s13.5-30,30-30s30,13.5,30,30S356.9,502.6,340.4,502.6z"/>
</g>
<g>
	<g>
		<ellipse fill="#07819A" cx="247.008" cy="472" rx="2.839" ry="2.872"/>
	</g>
	<path fill="#07819A" d="M247.008,461c-5.479,0-10.062,4.215-10.776,9.556h-20.622c-0.714-5.341-5.28-9.556-10.776-9.556
		s-10.062,4.215-10.776,9.556h-20.506c-0.714-5.341-5.28-9.556-10.776-9.556c-5.994,0-10.875,4.938-10.875,11s4.881,11,10.875,11
		c5.479,0,10.062-4.215,10.776-9.556h20.522c0.714,5.341,5.28,9.556,10.776,9.556s10.062-4.215,10.776-9.556h20.623
		c0.714,5.341,5.28,9.556,10.776,9.556c5.994,0,10.875-4.938,10.875-11C257.883,465.938,253.002,461,247.008,461z M162.676,480.111
		c-4.466,0-8.02-3.594-8.02-8.111s3.553-8.111,8.02-8.111c4.467,0,8.02,3.594,8.02,8.111S167.143,480.111,162.676,480.111z
		 M204.734,480.111c-4.466,0-8.02-3.594-8.02-8.111s3.553-8.111,8.02-8.111s8.02,3.594,8.02,8.111S209.217,480.111,204.734,480.111z
		 M247.008,480.111c-4.467,0-8.02-3.594-8.02-8.111s3.553-8.111,8.02-8.111c4.466,0,8.02,3.594,8.02,8.111
		S251.375,480.111,247.008,480.111z"/>
</g>
</svg>
